<?xml version="1.0" encoding="UTF-8" standalone="no"?>
<!-- Created with Inkscape (http://www.inkscape.org/) -->

<svg
   width="100mm"
   height="100mm"
   viewBox="0 0 100 100"
   version="1.1"
   id="svg5"
   sodipodi:docname="Icon_4.svg"
   inkscape:version="1.1.1 (3bf5ae0d25, 2021-09-20)"
   inkscape:export-filename="D:\User\itota\Projects\FuraiEngine\Resources\Icon_4.png"
   inkscape:export-xdpi="130.048"
   inkscape:export-ydpi="130.048"
   xmlns:inkscape="http://www.inkscape.org/namespaces/inkscape"
   xmlns:sodipodi="http://sodipodi.sourceforge.net/DTD/sodipodi-0.dtd"
   xmlns="http://www.w3.org/2000/svg"
   xmlns:svg="http://www.w3.org/2000/svg">
  <sodipodi:namedview
     id="namedview7"
     pagecolor="#505050"
     bordercolor="#eeeeee"
     borderopacity="1"
     inkscape:pageshadow="0"
     inkscape:pageopacity="0"
     inkscape:pagecheckerboard="0"
     inkscape:document-units="mm"
     showgrid="false"
     inkscape:zoom="0.66556426"
     inkscape:cx="190.81553"
     inkscape:cy="233.63634"
     inkscape:window-width="1280"
     inkscape:window-height="961"
     inkscape:window-x="-8"
     inkscape:window-y="32"
     inkscape:window-maximized="1"
     inkscape:current-layer="layer1" />
  <defs
     id="defs2" />
  <g
     inkscape:label="Layer 1"
     inkscape:groupmode="layer"
     id="layer1">
    <rect
       style="fill:#202020;stroke-width:6.53381;stroke-linecap:round;stroke-linejoin:round"
       id="rect3365"
       width="100"
       height="100"
       x="2.7755576e-17"
       y="0" />
    <path
       style="fill:#ffffff;fill-opacity:1;stroke:none;stroke-width:0.343957px;stroke-linecap:butt;stroke-linejoin:miter;stroke-opacity:1"
       d="m 15,80.400013 c 0,0 12.68502,-9.482043 13,-16.900001 0.31498,-7.417958 -6.324089,-11.017604 -6.5,-22.1 -0.175911,-11.082396 7.178699,-23.386014 25.999996,-23.4 18.821303,-0.01399 25.824088,11.965785 26,23.4 C 73.675908,52.834228 66.868066,56.276505 67,63.500012 67.131934,70.723519 73.5,75.2 73.5,75.2 L 80,57.866667 V 80.400013 H 62.666668 c 0,0 -7.448179,-5.993517 -7.800002,-16.900001 -0.351824,-10.906487 7.024383,-10.602417 7.799435,-22.1 C 63.441153,29.902429 59.637859,20.248178 47.499996,20.6 35.362137,20.951822 32.036259,31.291939 32.333333,41.400012 c 0.297075,10.108073 8.214254,13.348915 7.8,22.1 -0.414253,8.751085 -1.3,7.366655 -1.3,7.366655 h 14.733334 l -23.4,9.533346 z"
       id="path15864"
       sodipodi:nodetypes="czszszccccszszzcccc" />
    <path
       style="fill:#ffffff;fill-opacity:1;stroke:none;stroke-width:0.238125px;stroke-linecap:butt;stroke-linejoin:miter;stroke-opacity:1"
       d="M 95,5 V 95 H 5 l 81,-9 z"
       id="path862"
       sodipodi:nodetypes="ccccc" />
  </g>
</svg>
