<?xml version="1.0" encoding="UTF-8" standalone="no"?>
<!-- Created with Inkscape (http://www.inkscape.org/) -->

<svg
   width="340mm"
   height="100mm"
   viewBox="0 0 340 100"
   version="1.1"
   id="svg5"
   sodipodi:docname="Title_4.svg"
   inkscape:version="1.1.1 (3bf5ae0d25, 2021-09-20)"
   inkscape:export-filename="D:\User\itota\Projects\FuraiEngine\Resources\Title_4.png"
   inkscape:export-xdpi="130.048"
   inkscape:export-ydpi="130.048"
   xmlns:inkscape="http://www.inkscape.org/namespaces/inkscape"
   xmlns:sodipodi="http://sodipodi.sourceforge.net/DTD/sodipodi-0.dtd"
   xmlns="http://www.w3.org/2000/svg"
   xmlns:svg="http://www.w3.org/2000/svg">
  <sodipodi:namedview
     id="namedview7"
     pagecolor="#505050"
     bordercolor="#eeeeee"
     borderopacity="1"
     inkscape:pageshadow="0"
     inkscape:pageopacity="0"
     inkscape:pagecheckerboard="0"
     inkscape:document-units="mm"
     showgrid="false"
     inkscape:zoom="0.35355339"
     inkscape:cx="687.30779"
     inkscape:cy="233.34524"
     inkscape:window-width="1280"
     inkscape:window-height="961"
     inkscape:window-x="-8"
     inkscape:window-y="32"
     inkscape:window-maximized="1"
     inkscape:current-layer="layer1" />
  <defs
     id="defs2" />
  <g
     inkscape:label="Layer 1"
     inkscape:groupmode="layer"
     id="layer1">
    <path
       style="fill:#202020;fill-opacity:1;stroke:none;stroke-width:0.423333px;stroke-linecap:butt;stroke-linejoin:miter;stroke-opacity:1"
       d="m 110,5 h 31.99999 v 7.999997 H 122 v 7.999997 h 11.99999 V 28.99999 H 122 v 15.999994 h -12 z"
       id="path27884"
       sodipodi:nodetypes="ccccccccccc" />
    <path
       id="path27884-1"
       style="fill:#202020;fill-opacity:1;stroke:none;stroke-width:0.423333px;stroke-linecap:butt;stroke-linejoin:miter;stroke-opacity:1"
       d="m 110,55 v 31.999683 8.000337 h 11.99968 20 v -8.000337 h -20 v -7.999501 h 12.0005 V 70.99985 h -12.0005 v -7.999514 h 20 V 55 Z" />
    <path
       id="path27884-1-3"
       style="fill:#202020;fill-opacity:1;stroke:none;stroke-width:0.423333px;stroke-linecap:butt;stroke-linejoin:miter;stroke-opacity:1"
       d="m 297.99992,55 v 31.999683 8.000337 h 11.99968 20.00001 V 86.999683 H 309.9996 v -7.999501 h 12.00051 V 70.99985 H 309.9996 v -7.999514 h 20.00001 V 55 Z" />
    <path
       id="rect29387"
       style="fill:#202020;fill-opacity:1;stroke:none;stroke-width:5.61573;stroke-linecap:round;stroke-linejoin:round"
       d="m 149.99998,5 v 24.000182 a 15.999994,15.999994 0 0 0 15.99985,15.999834 15.999994,15.999994 0 0 0 15.99984,-15.999834 V 5 h -11.99968 v 8.50883 19.491511 a 3.9999982,3.9999982 0 0 1 -4.00016,3.999342 3.9999982,3.9999982 0 0 1 -4.00017,-3.999342 V 13.518753 5 Z" />
    <path
       id="rect29791"
       style="fill:#202020;fill-opacity:1;stroke:none;stroke-width:7.73636;stroke-linecap:round;stroke-linejoin:round"
       d="m 189.99997,5 v 24.000182 15.999834 h 11.99967 V 29.000182 h 2.66651 l 5.33383,15.999834 h 11.99967 L 216.10772,27.325863 A 11.999995,11.999995 0 0 0 221.99965,16.999675 11.999995,11.999995 0 0 0 209.99998,5 Z m 11.99967,8.000336 h 4.00018 a 3.9999982,3.9999982 0 0 1 4.00016,3.999339 3.9999982,3.9999982 0 0 1 -4.00016,4.000175 h -4.00018 v -4.000175 z" />
    <path
       id="path30690"
       style="fill:#202020;fill-opacity:1;stroke:none;stroke-width:0.423333px;stroke-linecap:butt;stroke-linejoin:miter;stroke-opacity:1"
       d="m 239.99955,5 -9.9996,40.000016 h 11.99968 l 1.00046,-8.000333 h 5.99942 l 1.00045,8.000333 h 11.99969 L 252.00006,5 Z m 6.00025,8.000336 2.00008,15.999846 h -4.00017 z" />
    <path
       id="rect31246"
       style="fill:#202020;fill-opacity:1;stroke:none;stroke-width:3.91918;stroke-linecap:round;stroke-linejoin:round"
       d="m 269.99994,5 v 8.000336 h 4.00015 v 23.999347 h -4.00015 v 8.000333 h 20 v -8.000333 h -4.00015 V 13.000336 h 4.00015 V 5 h -4.00015 -11.9997 z" />
    <path
       id="rect31246-2"
       style="fill:#202020;fill-opacity:1;stroke:none;stroke-width:3.91918;stroke-linecap:round;stroke-linejoin:round"
       d="m 229.99995,55 v 8.000336 h 4.00018 v 23.999347 h -4.00018 v 8.000337 h 20.00001 V 86.999683 H 245.9998 V 63.000336 h 4.00016 V 55 h -4.00016 -11.99967 z" />
    <path
       id="rect31604"
       style="fill:#202020;fill-opacity:1;stroke:none;stroke-width:3.91918;stroke-linecap:round;stroke-linejoin:round"
       d="m 149.99998,55 v 40.00002 h 11.99968 V 78.99935 l 8.00033,16.00067 h 11.99968 V 55 H 169.99999 V 71.000666 L 161.99966,55 Z" />
    <path
       id="rect31604-3"
       style="fill:#202020;fill-opacity:1;stroke:none;stroke-width:3.91918;stroke-linecap:round;stroke-linejoin:round"
       d="m 257.99994,55 v 40.00002 h 11.99968 V 78.99935 l 8.00033,16.00067 h 11.99967 V 55 H 277.99995 V 71.000666 L 269.99962,55 Z" />
    <path
       id="path31912"
       style="fill:#202020;fill-opacity:1;stroke:none;stroke-width:6.40769;stroke-linecap:round;stroke-linejoin:round"
       d="m 205.9998,55 a 15.999994,15.999994 0 0 0 -15.99983,15.99985 v 8.000332 A 15.999994,15.999994 0 0 0 205.9998,95.00002 15.999994,15.999994 0 0 0 221.99965,79.000182 v -4.000174 h -3.89681 -8.10286 -4.00018 v 4.000174 h 4.00018 v 4.000159 a 3.9999982,3.9999982 0 0 1 -4.00018,3.999342 3.9999982,3.9999982 0 0 1 -4.00016,-3.999342 V 66.999675 a 3.9999982,3.9999982 0 0 1 4.00016,-3.999341 3.9999982,3.9999982 0 0 1 4.00018,3.999341 v 4.000175 h 11.99967 A 15.999994,15.999994 0 0 0 205.9998,55 Z" />
    <path
       style="fill:#202020;fill-opacity:1;stroke:none;stroke-width:0.343957px;stroke-linecap:butt;stroke-linejoin:miter;stroke-opacity:1"
       d="m 15,80.400013 c 0,0 12.68502,-9.482043 13,-16.900001 0.31498,-7.417958 -6.324089,-11.017604 -6.5,-22.1 -0.175911,-11.082396 7.178699,-23.386014 25.999996,-23.4 18.821303,-0.01399 25.824088,11.965785 26,23.4 C 73.675908,52.834228 66.868066,56.276505 67,63.500012 67.131934,70.723519 73.5,75.2 73.5,75.2 L 80,57.866667 V 80.400013 H 62.666668 c 0,0 -7.448179,-5.993517 -7.800002,-16.900001 -0.351824,-10.906487 7.024383,-10.602417 7.799435,-22.1 C 63.441153,29.902429 59.637859,20.248178 47.499996,20.6 35.362137,20.951822 32.036259,31.291939 32.333333,41.400012 c 0.297075,10.108073 8.214254,13.348915 7.8,22.1 -0.414253,8.751085 -1.3,7.366655 -1.3,7.366655 h 14.733334 l -23.4,9.533346 z"
       id="path15864"
       sodipodi:nodetypes="czszszccccszszzcccc" />
    <path
       style="fill:#202020;fill-opacity:1;stroke:none;stroke-width:0.238125px;stroke-linecap:butt;stroke-linejoin:miter;stroke-opacity:1"
       d="M 94.999999,5 V 95 H 5 l 80.999999,-9 z"
       id="path862"
       sodipodi:nodetypes="ccccc" />
  </g>
</svg>
