<?xml version="1.0" encoding="UTF-8" standalone="no"?>
<!-- Created with Inkscape (http://www.inkscape.org/) -->

<svg
   width="100mm"
   height="100mm"
   viewBox="0 0 100 100"
   version="1.1"
   id="svg5"
   sodipodi:docname="Title_1.svg"
   inkscape:version="1.1.1 (3bf5ae0d25, 2021-09-20)"
   xmlns:inkscape="http://www.inkscape.org/namespaces/inkscape"
   xmlns:sodipodi="http://sodipodi.sourceforge.net/DTD/sodipodi-0.dtd"
   xmlns="http://www.w3.org/2000/svg"
   xmlns:svg="http://www.w3.org/2000/svg">
  <sodipodi:namedview
     id="namedview7"
     pagecolor="#505050"
     bordercolor="#eeeeee"
     borderopacity="1"
     inkscape:pageshadow="0"
     inkscape:pageopacity="0"
     inkscape:pagecheckerboard="0"
     inkscape:document-units="mm"
     showgrid="false"
     inkscape:zoom="1.9552971"
     inkscape:cx="269.01283"
     inkscape:cy="137.31929"
     inkscape:window-width="1280"
     inkscape:window-height="961"
     inkscape:window-x="-8"
     inkscape:window-y="32"
     inkscape:window-maximized="1"
     inkscape:current-layer="layer1" />
  <defs
     id="defs2" />
  <g
     inkscape:label="Layer 1"
     inkscape:groupmode="layer"
     id="layer1">
    <text
       xml:space="preserve"
       style="font-weight:bold;font-size:51.4817px;line-height:0.9;font-family:'MS Mincho';-inkscape-font-specification:'MS Mincho Bold';letter-spacing:0px;word-spacing:0px;stroke-width:0.257408;fill:#808080;fill-opacity:1"
       x="-0.89058805"
       y="45.627781"
       id="text2608"><tspan
         sodipodi:role="line"
         id="tspan2606"
         style="font-size:51.4817px;stroke-width:0.257408;fill:#808080;fill-opacity:1"
         x="-0.89058805"
         y="45.627781">炎風</tspan><tspan
         sodipodi:role="line"
         style="font-size:51.4817px;stroke-width:0.257408;fill:#808080;fill-opacity:1"
         x="-0.89058805"
         y="91.961311"
         id="tspan2610">神雷</tspan></text>
    <path
       style="fill:#000023;fill-opacity:1;stroke:none;stroke-width:0.264583px;stroke-linecap:butt;stroke-linejoin:miter;stroke-opacity:1"
       d="m 50,48 c 0,0 9.757707,-5.353601 10,-13 0.242293,-7.646399 -4.864684,-8.475079 -5,-17 -0.135316,-8.524919 5.522076,-17.86702135 20,-18 14.477924,-0.13297865 19.864684,9.204449 20,18 0.135316,8.795551 -5.135316,11.181403 -5,17 0.135318,5.818595 10,13 10,13 H 88 C 88,48 82.270632,43.389604 82,35 81.729366,26.610396 88.270196,25.171758 87.999565,18 87.728934,10.828243 84.336818,1.7293676 75,2 65.663182,2.2706323 61.94787,8.1078926 62,18 c 0.05213,9.892107 6.671436,10.621174 6,17 -0.671436,6.378826 -4,9 -4,9 h 18 z"
       id="path15864"
       sodipodi:nodetypes="czszssccssszzccc" />
    <path
       style="fill:#000000;fill-opacity:1;stroke:none;stroke-width:0.264583px;stroke-linecap:butt;stroke-linejoin:miter;stroke-opacity:1"
       d="m 65,53 h 23 l -5,5 h 17 l -8,8 V 60 H 60 L 60.486332,66.981508 53,58 h 17 z"
       id="path18614"
       sodipodi:nodetypes="ccccccccccc" />
    <path
       style="fill:#000000;fill-opacity:1;stroke:none;stroke-width:0.264583px;stroke-linecap:butt;stroke-linejoin:miter;stroke-opacity:1"
       d="m 68,62 -4.130764,4.710877 h 2.841641 L 68,77 70.499731,65.763663 67.522774,65.493031 Z"
       id="path20652"
       sodipodi:nodetypes="ccccccc" />
  </g>
</svg>
